# Blender v2.82 (sub 7) OBJ File: '3D_objecten.blendshit.blend'
# www.blender.org
mtllib rand.mtl
o speelveld.001_Plane.013
v -26.000004 -0.000004 -50.358025
v 15.997696 -0.000004 13.379234
v 25.659184 -0.000004 5.965706
v 25.238625 -0.000004 7.204636
v 24.659946 -0.000004 8.378075
v 23.933060 -0.000004 9.465935
v 23.070396 -0.000004 10.449615
v 22.086716 -0.000004 11.312279
v 20.998850 -0.000004 12.039169
v 19.825413 -0.000004 12.617844
v 18.586483 -0.000004 13.038406
v -15.997695 -0.000004 13.379234
v -25.914433 -0.000004 4.682480
v -25.238625 -0.000004 7.204636
v -22.086716 -0.000004 11.312279
v -20.998850 -0.000004 12.039169
v -19.825413 -0.000004 12.617844
v -18.586483 -0.000004 13.038406
v -17.303259 -0.000004 13.293655
v 26.000004 -0.000004 -50.358025
v 26.000004 -0.000004 3.376923
v 25.914433 -0.000004 4.682480
v 17.303259 -0.000004 13.293655
v -26.000004 -0.000004 3.376923
v -25.659184 -0.000004 5.965706
v -24.659950 -0.000004 8.378075
v -23.933060 -0.000004 9.465935
v -23.070396 -0.000004 10.449615
v -21.766134 -0.000004 10.894485
v -20.735542 -0.000004 11.583107
v -19.623886 -0.000004 12.131317
v -18.450186 -0.000004 12.529739
v -17.234520 -0.000004 12.771545
v -15.980491 -0.000004 12.853752
v 15.980492 -0.000004 12.853752
v 18.450186 -0.000004 12.529739
v 19.623886 -0.000004 12.131317
v 20.735544 -0.000004 11.583107
v 21.766134 -0.000004 10.894485
v 22.698025 -0.000004 10.077248
v 23.515270 -0.000004 9.145355
v 24.203888 -0.000004 8.114769
v 24.752098 -0.000004 7.003113
v 25.150513 -0.000004 5.829407
v 25.474518 -0.000004 -50.358025
v -25.474518 -0.000004 3.359718
v -24.203888 -0.000004 8.114769
v -23.515270 -0.000004 9.145355
v -22.698025 -0.000004 10.077248
v 25.392326 -0.000004 4.613747
v 25.474518 -0.000004 3.359718
v -25.474518 -0.000004 -50.358025
v -25.392326 -0.000004 4.613747
v -25.150517 -0.000004 5.829407
v -24.752098 -0.000004 7.003113
v 17.234520 -0.000004 12.771545
v -21.766134 2.517212 10.894485
v -20.735542 2.517212 11.583107
v -19.623886 2.517212 12.131317
v -18.450186 2.517212 12.529739
v -17.234520 2.517212 12.771545
v -15.980491 2.517212 12.853752
v 15.980492 2.517212 12.853752
v 18.450186 2.517212 12.529739
v 19.623886 2.517212 12.131317
v 20.735544 2.517212 11.583107
v 21.766134 2.517212 10.894485
v 22.698025 2.517212 10.077248
v 23.515270 2.517212 9.145355
v 24.203888 2.517212 8.114769
v 24.752098 2.517212 7.003113
v 25.150513 2.517212 5.829407
v -24.203888 2.517212 8.114769
v -23.515270 2.517212 9.145355
v -22.698025 2.517212 10.077248
v 25.392326 2.517212 4.613747
v 25.474518 2.517212 3.359718
v -25.474518 2.517212 3.359718
v -25.392326 2.517212 4.613747
v -25.150517 2.517212 5.829407
v -24.752098 2.517212 7.003113
v 17.234520 2.517212 12.771545
v -22.086716 2.517212 11.312279
v -20.998850 2.517212 12.039169
v -19.825413 2.517212 12.617844
v -18.586483 2.517212 13.038406
v -17.303259 2.517212 13.293655
v -15.997695 2.517212 13.379234
v 15.997696 2.517212 13.379234
v 18.586483 2.517212 13.038406
v 19.825413 2.517212 12.617844
v 20.998850 2.517212 12.039169
v 22.086716 2.517212 11.312279
v 23.070396 2.517212 10.449615
v 23.933060 2.517212 9.465935
v 24.659946 2.517212 8.378075
v 25.238625 2.517212 7.204636
v 25.659184 2.517212 5.965706
v -24.659950 2.517212 8.378075
v -23.933060 2.517212 9.465935
v -23.070396 2.517212 10.449615
v 25.914433 2.517212 4.682480
v 26.000004 2.517212 3.376923
v 26.000004 2.517212 -50.358025
v -26.000004 2.517212 3.376923
v -25.914433 2.517212 4.682480
v -25.659184 2.517212 5.965706
v -25.238625 2.517212 7.204636
v 17.303259 2.517212 13.293655
v -26.000004 2.517212 -50.358025
v -25.474518 2.517212 -50.358025
v 25.474518 2.517212 -50.358025
vt 0.898276 0.022583
vt 0.915850 0.031557
vt 0.915850 0.031557
vt 0.898276 0.022583
vt 0.000000 0.000000
vt 0.000000 0.000000
vt 0.000000 0.000000
vt 0.000000 0.000000
vt 0.932147 0.042850
vt 0.932147 0.042850
vt 0.000000 0.000000
vt 0.000000 0.000000
vt 0.946862 0.056258
vt 0.946862 0.056258
vt 0.000000 0.000000
vt 0.000000 0.000000
vt 0.959724 0.071528
vt 0.959724 0.071528
vt 0.000000 0.000000
vt 0.000000 0.000000
vt 0.970552 0.088409
vt 0.970552 0.088409
vt 0.000000 0.000000
vt 0.000000 0.000000
vt 0.979394 0.106497
vt 0.979394 0.106497
vt 0.000000 0.000000
vt 0.000000 0.000000
vt 0.985868 0.125525
vt 0.985868 0.125525
vt 0.000000 0.000000
vt 0.000000 0.000000
vt 0.991082 0.165854
vt 0.990906 0.683467
vt 0.990906 0.683467
vt 0.991082 0.165854
vt 0.000000 0.000000
vt 0.000000 0.000000
vt 0.988727 0.704738
vt 0.988727 0.704738
vt 0.000000 0.000000
vt 0.000000 0.000000
vt 0.000000 0.000000
vt 0.000000 0.000000
vt 0.983729 0.725220
vt 0.983729 0.725220
vt 0.000000 0.000000
vt 0.000000 0.000000
vt 0.976121 0.744825
vt 0.976121 0.744825
vt 0.000000 0.000000
vt 0.000000 0.000000
vt 0.966067 0.763196
vt 0.966067 0.763196
vt 0.000000 0.000000
vt 0.000000 0.000000
vt 0.953730 0.780126
vt 0.953730 0.780126
vt 0.000000 0.000000
vt 0.000000 0.000000
vt 0.000000 0.000000
vt 0.000000 0.000000
vt 0.000000 0.000000
vt 0.000000 0.000000
vt 0.000000 0.000000
vt 0.000000 0.000000
vt 0.879679 0.016041
vt 0.879679 0.016041
vt 0.000000 0.000000
vt 0.000000 0.000000
vt 0.923031 0.808657
vt 0.905152 0.819835
vt 0.905152 0.819835
vt 0.923031 0.808657
vt 0.000000 0.000000
vt 0.000000 0.000000
vt 0.000000 0.000000
vt 0.000000 0.000000
vt 0.939308 0.795356
vt 0.939308 0.795356
vt 0.000000 0.000000
vt 0.000000 0.000000
vt 0.838280 0.010848
vt 0.859985 0.012010
vt 0.859985 0.012010
vt 0.838280 0.010848
vt 0.820388 0.839887
vt 0.010585 0.801906
vt 0.010585 0.801906
vt 0.820388 0.839887
vt 0.000000 0.000000
vt 0.000000 0.000000
vt 0.000000 0.000000
vt 0.000000 0.000000
vt 0.843947 0.839136
vt 0.843947 0.839136
vt 0.015139 0.018156
vt 0.015139 0.018156
vt 0.000000 0.000000
vt 0.000000 0.000000
vt 0.865543 0.835224
vt 0.865543 0.835224
vt 0.000000 0.000000
vt 0.000000 0.000000
vt 0.000000 0.000000
vt 0.000000 0.000000
vt 0.885925 0.828736
vt 0.885925 0.828736
vt 0.000000 0.000000
vt 0.000000 0.000000
vt 0.000000 0.000000
vt 0.000000 0.000000
vt 0.000000 0.000000
vt 0.000000 0.000000
vt 0.989821 0.145271
vt 0.989821 0.145271
vt 0.960571 0.785817
vt 0.973580 0.767965
vt 0.984204 0.748586
vt 0.992265 0.727914
vt 0.997586 0.706269
vt 0.999908 0.683953
vt 0.999908 0.165600
vt 0.994120 0.123292
vt 0.987281 0.103240
vt 0.977980 0.084221
vt 0.966554 0.066488
vt 0.952964 0.050383
vt 0.937402 0.036241
vt 0.920162 0.024341
vt 0.901596 0.014885
vt 0.882006 0.007898
vt 0.010025 0.816007
vt 0.820191 0.851283
vt 0.909433 0.827717
vt 0.928242 0.815915
vt 0.945379 0.801881
vt 0.861461 0.003161
vt 0.838367 0.000092
vt 0.015124 0.003883
vt 0.845288 0.848782
vt 0.867852 0.844137
vt 0.889228 0.837146
vt 0.998361 0.144124
vn -0.8969 0.0000 -0.4423
vn 0.9469 0.0000 0.3214
vn -0.8315 0.0000 -0.5556
vn 0.8969 0.0000 0.4423
vn -0.7518 0.0000 -0.6593
vn 0.8315 0.0000 0.5556
vn -0.6593 0.0000 -0.7518
vn 0.7518 0.0000 0.6593
vn -0.5556 0.0000 -0.8315
vn 0.6593 0.0000 0.7518
vn -0.4423 0.0000 -0.8969
vn 0.5556 0.0000 0.8315
vn -0.3214 0.0000 -0.9469
vn 0.4423 0.0000 0.8969
vn 0.0000 0.0000 -1.0000
vn 0.3214 0.0000 0.9469
vn 0.0654 0.0000 -0.9979
vn 0.0000 0.0000 1.0000
vn 0.1951 0.0000 -0.9808
vn -0.0654 0.0000 0.9979
vn 0.3214 0.0000 -0.9469
vn -0.1951 0.0000 0.9808
vn 0.4423 0.0000 -0.8969
vn -0.3214 0.0000 0.9469
vn 0.5556 0.0000 -0.8315
vn -0.4423 0.0000 0.8969
vn -0.5556 0.0000 0.8315
vn -0.8315 0.0000 0.5556
vn -0.9469 0.0000 -0.3214
vn -0.7518 0.0000 0.6593
vn 0.8315 0.0000 -0.5556
vn 0.9979 0.0000 0.0654
vn 0.7518 0.0000 -0.6593
vn 1.0000 0.0000 0.0000
vn -0.9979 0.0000 -0.0654
vn -0.9979 0.0000 0.0654
vn 0.9979 0.0000 -0.0654
vn -1.0000 0.0000 0.0000
vn -0.9808 0.0000 0.1951
vn 0.9808 0.0000 -0.1951
vn -0.9469 0.0000 0.3214
vn 0.9469 0.0000 -0.3214
vn -0.8969 0.0000 0.4423
vn 0.8969 0.0000 -0.4423
vn -0.6593 0.0000 0.7518
vn 0.6593 0.0000 -0.7518
vn 0.0654 0.0000 0.9979
vn -0.0654 0.0000 -0.9979
vn 0.1951 0.0000 0.9808
vn -0.1951 0.0000 -0.9808
vn 0.9808 0.0000 0.1951
vn -0.9808 0.0000 -0.1951
vn 0.0000 1.0000 -0.0000
usemtl Material.001
s off
f 43/1/1 42/2/1 70/3/1 71/4/1
f 4/5/2 3/6/2 98/7/2 97/8/2
f 42/2/3 41/9/3 69/10/3 70/3/3
f 5/11/4 4/5/4 97/8/4 96/12/4
f 41/9/5 40/13/5 68/14/5 69/10/5
f 6/15/6 5/11/6 96/12/6 95/16/6
f 40/13/7 39/17/7 67/18/7 68/14/7
f 7/19/8 6/15/8 95/16/8 94/20/8
f 39/17/9 38/21/9 66/22/9 67/18/9
f 8/23/10 7/19/10 94/20/10 93/24/10
f 38/21/11 37/25/11 65/26/11 66/22/11
f 9/27/12 8/23/12 93/24/12 92/28/12
f 37/25/13 36/29/13 64/30/13 65/26/13
f 10/31/14 9/27/14 92/28/14 91/32/14
f 35/33/15 34/34/15 62/35/15 63/36/15
f 11/37/16 10/31/16 91/32/16 90/38/16
f 34/34/17 33/39/17 61/40/17 62/35/17
f 12/41/18 2/42/18 89/43/18 88/44/18
f 33/39/19 32/45/19 60/46/19 61/40/19
f 19/47/20 12/41/20 88/44/20 87/48/20
f 32/45/21 31/49/21 59/50/21 60/46/21
f 18/51/22 19/47/22 87/48/22 86/52/22
f 31/49/23 30/53/23 58/54/23 59/50/23
f 17/55/24 18/51/24 86/52/24 85/56/24
f 30/53/25 29/57/25 57/58/25 58/54/25
f 16/59/26 17/55/26 85/56/26 84/60/26
f 15/61/27 16/59/27 84/60/27 83/62/27
f 26/63/28 27/64/28 100/65/28 99/66/28
f 44/67/29 43/1/29 71/4/29 72/68/29
f 27/64/30 28/69/30 101/70/30 100/65/30
f 48/71/31 47/72/31 73/73/31 74/74/31
f 22/75/32 21/76/32 103/77/32 102/78/32
f 49/79/33 48/71/33 74/74/33 75/80/33
f 21/76/34 20/81/34 104/82/34 103/77/34
f 51/83/35 50/84/35 76/85/35 77/86/35
f 46/87/34 52/88/34 111/89/34 78/90/34
f 24/91/36 13/92/36 106/93/36 105/94/36
f 53/95/37 46/87/37 78/90/37 79/96/37
f 45/97/38 51/83/38 77/86/38 112/98/38
f 13/92/39 25/99/39 107/100/39 106/93/39
f 54/101/40 53/95/40 79/96/40 80/102/40
f 1/103/38 24/91/38 105/94/38 110/104/38
f 25/99/41 14/105/41 108/106/41 107/100/41
f 55/107/42 54/101/42 80/102/42 81/108/42
f 14/105/43 26/63/43 99/66/43 108/106/43
f 47/72/44 55/107/44 81/108/44 73/73/44
f 52/109/15 1/103/15 110/104/15 111/110/15
f 28/69/45 15/61/45 83/62/45 101/70/45
f 29/57/46 49/79/46 75/80/46 57/58/46
f 20/81/15 45/111/15 112/112/15 104/82/15
f 2/42/47 23/113/47 109/114/47 89/43/47
f 56/115/48 35/33/48 63/36/48 82/116/48
f 23/113/49 11/37/49 90/38/49 109/114/49
f 36/29/50 56/115/50 82/116/50 64/30/50
f 3/6/51 22/75/51 102/78/51 98/7/51
f 50/84/52 44/67/52 72/68/52 76/85/52
usemtl Material
f 58/54/53 57/58/53 83/117/53 84/118/53
f 59/50/53 58/54/53 84/118/53 85/119/53
f 60/46/53 59/50/53 85/119/53 86/120/53
f 61/40/53 60/46/53 86/120/53 87/121/53
f 62/35/53 61/40/53 87/121/53 88/122/53
f 63/36/53 62/35/53 88/122/53 89/123/53
f 65/26/53 64/30/53 90/124/53 91/125/53
f 66/22/53 65/26/53 91/125/53 92/126/53
f 67/18/53 66/22/53 92/126/53 93/127/53
f 68/14/53 67/18/53 93/127/53 94/128/53
f 69/10/53 68/14/53 94/128/53 95/129/53
f 70/3/53 69/10/53 95/129/53 96/130/53
f 71/4/53 70/3/53 96/130/53 97/131/53
f 72/68/53 71/4/53 97/131/53 98/132/53
f 78/90/53 111/89/53 110/133/53 105/134/53
f 74/74/53 73/73/53 99/135/53 100/136/53
f 75/80/53 74/74/53 100/136/53 101/137/53
f 77/86/53 76/85/53 102/138/53 103/139/53
f 112/98/53 77/86/53 103/139/53 104/140/53
f 79/96/53 78/90/53 105/134/53 106/141/53
f 80/102/53 79/96/53 106/141/53 107/142/53
f 81/108/53 80/102/53 107/142/53 108/143/53
f 73/73/53 81/108/53 108/143/53 99/135/53
f 57/58/53 75/80/53 101/137/53 83/117/53
f 82/116/53 63/36/53 89/123/53 109/144/53
f 64/30/53 82/116/53 109/144/53 90/124/53
f 76/85/53 72/68/53 98/132/53 102/138/53
