# Blender v2.82 (sub 7) OBJ File: '3D_objecten.blend'
# www.blender.org
mtllib Gat_groot.mtl
o groot_gat_Plane.004
v 0.000000 0.000000 1.000000
v 0.000000 0.000000 -1.000000
v -1.000000 0.000000 0.000000
v 1.000000 0.000000 0.000000
v -0.506385 -0.020000 -0.506385
v 0.185350 -0.020000 0.691735
v 0.691735 -0.020000 0.185350
v 0.691735 -0.020000 -0.185350
v 0.185350 -0.020000 -0.691735
v -0.185350 -0.020000 -0.691735
v -0.691735 -0.020000 -0.185350
v -0.691735 -0.020000 0.185350
v -0.185350 -0.020000 0.691735
v 0.506385 -0.020000 0.506385
v 0.506385 -0.020000 -0.506385
v -0.506385 -0.020000 0.506385
v 0.614523 0.000000 0.614524
v -0.614523 0.000000 -0.614524
v -0.224931 0.000000 0.839455
v -0.839455 0.000000 0.224931
v -0.839455 0.000000 -0.224931
v -0.224931 0.000000 -0.839455
v 0.224931 0.000000 -0.839455
v 0.224931 0.000000 0.839455
v 0.839455 0.000000 0.224931
v 0.839455 0.000000 -0.224931
v 0.614524 0.000000 -0.614523
v -0.614524 0.000000 0.614523
v -0.358069 -0.020000 -0.620193
v -0.434534 0.000000 -0.752634
v -0.000000 -0.020000 -0.716137
v 0.000000 0.000000 -0.869067
v 1.000000 0.000000 -1.000000
v 0.358068 -0.020000 -0.620193
v 0.434534 0.000000 -0.752634
v 0.620193 -0.020000 -0.358069
v 0.752634 0.000000 -0.434534
v 0.716137 -0.020000 -0.000000
v 0.869067 0.000000 0.000000
v 0.620193 -0.020000 0.358068
v 0.752634 0.000000 0.434534
v 1.000000 0.000000 1.000000
v 0.358069 -0.020000 0.620193
v 0.434534 0.000000 0.752634
v 0.000000 -0.020000 0.716137
v -0.000000 0.000000 0.869067
v -0.358068 -0.020000 0.620193
v -0.434534 0.000000 0.752634
v -1.000000 0.000000 1.000000
v -0.620193 -0.020000 0.358069
v -0.752634 0.000000 0.434534
v -0.716137 -0.020000 0.000000
v -0.869067 0.000000 -0.000000
v -1.000000 0.000000 -1.000000
v -0.620193 -0.020000 -0.358068
v -0.752634 0.000000 -0.434534
v -0.566499 -0.200000 -0.566499
v 0.207353 -0.200000 0.773852
v 0.773852 -0.200000 0.207353
v 0.773852 -0.200000 -0.207353
v 0.207353 -0.200000 -0.773852
v -0.207353 -0.200000 -0.773852
v -0.773852 -0.200000 -0.207353
v -0.773852 -0.200000 0.207353
v -0.207353 -0.200000 0.773852
v 0.566499 -0.200000 0.566499
v 0.566499 -0.200000 -0.566499
v -0.566499 -0.200000 0.566499
v -0.400575 -0.200000 -0.693816
v -0.000000 -0.200000 -0.801150
v 0.400575 -0.200000 -0.693817
v 0.693816 -0.200000 -0.400575
v 0.801150 -0.200000 -0.000000
v 0.693817 -0.200000 0.400575
v 0.400575 -0.200000 0.693816
v 0.000000 -0.200000 0.801150
v -0.400575 -0.200000 0.693817
v -0.693816 -0.200000 0.400575
v -0.801150 -0.200000 0.000000
v -0.693817 -0.200000 -0.400575
vt 0.470271 0.059458
vt 0.607208 0.059458
vt 0.547750 0.118917
vt 0.440542 0.118917
vt 0.940542 0.607208
vt 0.940542 0.470271
vt 0.940542 0.333333
vt 1.000000 0.500000
vt 0.913740 0.223198
vt 0.881083 0.333333
vt 0.827479 0.279729
vt 0.223198 0.913740
vt 0.279729 0.827479
vt 0.333333 0.881083
vt 0.333333 0.940542
vt 0.500000 0.000000
vt 0.333333 0.059458
vt 0.059458 0.529729
vt 0.118917 0.559458
vt 0.118917 0.666667
vt 0.059458 0.666667
vt 0.913740 0.776802
vt 0.940542 0.666667
vt 1.000000 1.000000
vt 0.223198 0.086260
vt 0.333333 0.118917
vt 0.279729 0.172521
vt 0.086260 0.776802
vt 0.172521 0.720271
vt 0.226125 0.773875
vt 0.113063 0.886937
vt 0.776802 0.086260
vt 0.886937 0.113063
vt 0.773875 0.226125
vt 0.720271 0.172521
vt 1.000000 0.000000
vt 0.086260 0.223198
vt 0.113063 0.113063
vt 0.226125 0.226125
vt 0.172521 0.279729
vt 0.392792 0.940542
vt 0.529729 0.940542
vt 0.666667 0.940542
vt 0.500000 1.000000
vt 0.720271 0.827479
vt 0.773875 0.773875
vt 0.886937 0.886937
vt 0.776802 0.913740
vt 0.000000 0.000000
vt 0.827479 0.720271
vt 0.881083 0.666667
vt 0.881083 0.440542
vt 0.000000 1.000000
vt 0.559458 0.881083
vt 0.666667 0.881083
vt 0.000000 0.500000
vt 0.059458 0.392792
vt 0.452250 0.881083
vt 0.881083 0.547750
vt 0.666667 0.059458
vt 0.666667 0.118917
vt 0.059458 0.333333
vt 0.118917 0.333333
vt 0.118917 0.452250
vt 0.440542 0.118917
vt 0.333333 0.118917
vt 0.226125 0.773875
vt 0.279729 0.827479
vt 0.279729 0.172521
vt 0.881083 0.440542
vt 0.881083 0.333333
vt 0.547750 0.118917
vt 0.172521 0.279729
vt 0.118917 0.333333
vt 0.559458 0.881083
vt 0.666667 0.881083
vt 0.827479 0.279729
vt 0.720271 0.172521
vt 0.666667 0.118917
vt 0.881083 0.547750
vt 0.172521 0.720271
vt 0.827479 0.720271
vt 0.881083 0.666667
vt 0.226125 0.226125
vt 0.720271 0.827479
vt 0.333333 0.881083
vt 0.773875 0.773875
vt 0.773875 0.226125
vt 0.452250 0.881083
vt 0.118917 0.666667
vt 0.118917 0.559458
vt 0.118917 0.452250
vn -0.0171 0.9914 -0.1297
vn 0.0000 1.0000 0.0000
vn -0.1208 0.9914 -0.0500
vn 0.0500 0.9914 0.1208
vn 0.1297 0.9914 0.0171
vn 0.0500 0.9914 -0.1208
vn 0.1038 0.9914 0.0796
vn -0.0796 0.9914 -0.1038
vn 0.1038 0.9914 -0.0796
vn -0.0796 0.9914 0.1038
vn -0.1208 0.9914 0.0500
vn -0.1297 0.9914 -0.0171
vn -0.0171 0.9914 0.1297
vn 0.0796 0.9914 0.1038
vn 0.0171 0.9914 0.1297
vn -0.0500 0.9914 0.1208
vn -0.1038 0.9914 0.0796
vn -0.1297 0.9914 0.0171
vn -0.1038 0.9914 -0.0796
vn -0.0500 0.9914 -0.1208
vn 0.0171 0.9914 -0.1297
vn 0.0796 0.9914 -0.1038
vn 0.1208 0.9914 -0.0500
vn 0.1297 0.9914 -0.0171
vn 0.1208 0.9914 0.0500
vn 0.1182 -0.4241 -0.8979
vn 0.5513 -0.4241 0.7185
vn 0.3466 -0.4241 -0.8367
vn -0.8979 -0.4241 -0.1182
vn -0.1182 -0.4241 -0.8979
vn 0.8367 -0.4241 -0.3466
vn -0.1182 -0.4241 0.8979
vn -0.8367 -0.4241 -0.3466
vn -0.3466 -0.4241 -0.8367
vn -0.8979 -0.4241 0.1182
vn 0.7185 -0.4241 0.5513
vn -0.8367 -0.4241 0.3466
vn 0.7185 -0.4241 -0.5513
vn 0.5513 -0.4241 -0.7185
vn -0.3466 -0.4241 0.8367
vn 0.3466 -0.4241 0.8367
vn -0.7185 -0.4241 0.5513
vn -0.7185 -0.4241 -0.5513
vn 0.1182 -0.4241 0.8979
vn -0.5513 -0.4241 0.7185
vn 0.8367 -0.4241 0.3466
vn -0.5513 -0.4241 -0.7185
vn 0.8979 -0.4241 0.1182
vn 0.8979 -0.4241 -0.1182
usemtl None
s off
f 46/1/1 24/2/1 6/3/1 45/4/1
f 26/5/2 39/6/2 25/7/2 4/8/2
f 41/9/3 25/7/3 7/10/3 40/11/3
f 30/12/4 29/13/4 10/14/4 22/15/4
f 1/16/2 24/2/2 46/1/2 19/17/2
f 53/18/5 52/19/5 11/20/5 21/21/5
f 37/22/2 26/23/2 4/8/2 33/24/2
f 48/25/6 19/17/6 13/26/6 47/27/6
f 56/28/7 55/29/7 5/30/7 18/31/7
f 44/32/8 17/33/8 14/34/8 43/35/8
f 42/36/2 41/9/2 17/33/2 44/32/2
f 51/37/9 28/38/9 16/39/9 50/40/9
f 22/41/2 32/42/2 23/43/2 2/44/2
f 34/45/10 15/46/10 27/47/10 35/48/10
f 49/49/2 48/25/2 28/38/2 51/37/2
f 27/47/2 37/22/2 33/24/2 35/48/2
f 49/49/2 1/16/2 19/17/2 48/25/2
f 36/50/11 8/51/11 26/23/11 37/22/11
f 38/52/12 7/10/12 25/7/12 39/6/12
f 54/53/2 30/12/2 22/15/2 2/44/2
f 42/36/2 4/8/2 25/7/2 41/9/2
f 31/54/13 9/55/13 23/43/13 32/42/13
f 3/56/2 20/57/2 53/18/2 21/21/2
f 18/31/14 5/30/14 29/13/14 30/12/14
f 10/58/15 31/54/15 32/42/15 22/41/15
f 9/55/16 34/45/16 35/48/16 23/43/16
f 23/43/2 35/48/2 33/24/2 2/44/2
f 15/46/17 36/50/17 37/22/17 27/47/17
f 8/59/18 38/52/18 39/6/18 26/5/18
f 17/33/19 41/9/19 40/11/19 14/34/19
f 1/16/2 42/36/2 44/32/2 24/60/2
f 24/60/20 44/32/20 43/35/20 6/61/20
f 19/17/21 46/1/21 45/4/21 13/26/21
f 28/38/22 48/25/22 47/27/22 16/39/22
f 3/56/2 49/49/2 51/37/2 20/62/2
f 20/62/23 51/37/23 50/40/23 12/63/23
f 20/57/24 12/64/24 52/19/24 53/18/24
f 3/56/2 21/21/2 56/28/2 54/53/2
f 21/21/25 11/20/25 55/29/25 56/28/25
f 18/31/2 30/12/2 54/53/2 56/28/2
f 13/26/26 45/4/26 76/65/26 65/66/26
f 29/13/27 5/30/27 57/67/27 69/68/27
f 47/27/28 13/26/28 65/66/28 77/69/28
f 7/10/29 38/52/29 73/70/29 59/71/29
f 45/4/30 6/3/30 58/72/30 76/65/30
f 12/63/31 50/40/31 78/73/31 64/74/31
f 9/55/32 31/54/32 70/75/32 61/76/32
f 40/11/33 7/10/33 59/71/33 74/77/33
f 6/61/34 43/35/34 75/78/34 58/79/34
f 38/52/35 8/59/35 60/80/35 73/70/35
f 5/30/36 55/29/36 80/81/36 57/67/36
f 8/51/37 36/50/37 72/82/37 60/83/37
f 50/40/38 16/39/38 68/84/38 78/73/38
f 16/39/39 47/27/39 77/69/39 68/84/39
f 34/45/40 9/55/40 61/76/40 71/85/40
f 10/14/41 29/13/41 69/68/41 62/86/41
f 36/50/42 15/46/42 67/87/42 72/82/42
f 14/34/43 40/11/43 74/77/43 66/88/43
f 31/54/44 10/58/44 62/89/44 70/75/44
f 15/46/45 34/45/45 71/85/45 67/87/45
f 55/29/46 11/20/46 63/90/46 80/81/46
f 43/35/47 14/34/47 66/88/47 75/78/47
f 11/20/48 52/19/48 79/91/48 63/90/48
f 52/19/49 12/64/49 64/92/49 79/91/49
